<?xml version="1.0" encoding="UTF-8" standalone="no"?>
<svg
   xmlns:dc="http://purl.org/dc/elements/1.1/"
   xmlns:cc="http://creativecommons.org/ns#"
   xmlns:rdf="http://www.w3.org/1999/02/22-rdf-syntax-ns#"
   xmlns:svg="http://www.w3.org/2000/svg"
   xmlns="http://www.w3.org/2000/svg"
   xmlns:xlink="http://www.w3.org/1999/xlink"
   xmlns:sodipodi="http://sodipodi.sourceforge.net/DTD/sodipodi-0.dtd"
   xmlns:inkscape="http://www.inkscape.org/namespaces/inkscape"
   width="794"
   height="710"
   viewBox="0 0 794 710"
   id="svg2"
   version="1.1"
   inkscape:version="0.48.2 r9819"
   sodipodi:docname="Australia_stub.svg">
  <sodipodi:namedview
     pagecolor="#ffffff"
     bordercolor="#666666"
     borderopacity="1"
     objecttolerance="10"
     gridtolerance="10"
     guidetolerance="10"
     inkscape:pageopacity="0"
     inkscape:pageshadow="2"
     inkscape:window-width="1400"
     inkscape:window-height="988"
     id="namedview47"
     showgrid="false"
     showguides="true"
     inkscape:guide-bbox="true"
     inkscape:zoom="1.3295775"
     inkscape:cx="397"
     inkscape:cy="429.69523"
     inkscape:window-x="-8"
     inkscape:window-y="-8"
     inkscape:window-maximized="1"
     inkscape:current-layer="svg2" />
  <metadata
     id="metadata4">
    <rdf:RDF>
      <cc:Work
         rdf:about="">
        <dc:format>image/svg+xml</dc:format>
        <dc:type
           rdf:resource="http://purl.org/dc/dcmitype/StillImage" />
      </cc:Work>
    </rdf:RDF>
  </metadata>
  <defs
     id="defs6">
    <polygon
       id="5star"
       style="fill:#ffffff"
       points="0,-9 2.351141,-3.236068 8.5595086,-2.7811529 3.8042261,1.236068 5.2900673,7.2811529 0,4 -5.2900673,7.2811529 -3.8042261,1.236068 -8.5595086,-2.7811529 -2.351141,-3.236068 0,-9" />
    <polygon
       id="7star"
       style="fill:#ffffff"
       points="0,-9 1.735535,-3.6038755 7.0364833,-5.6114082 3.8997116,-0.89008374 8.7743512,2.0026884 3.1273259,2.4939592 3.9049537,8.1087198 0,4 -3.9049537,8.1087198 -3.1273259,2.4939592 -8.7743512,2.0026884 -3.8997116,-0.89008374 -7.0364833,-5.6114082 -1.735535,-3.6038755 0,-9" />
    <clipPath
       id="Field">
      <rect
         height="30"
         width="60"
         id="rect11" />
    </clipPath>
    <clipPath
       id="t">
      <path
         d="M30,15 h30 v15 z v15 h-30 z h-30 v-15 z v-15 h30 z"
         id="path14" />
    </clipPath>
    <g
       id="UnionJack">
      <rect
         height="30"
         width="60"
         fill="#002b7f"
         id="rect17" />
      <path
         d="M0,0 L60,30 M60,0 L0,30"
         stroke="#ffffff"
         stroke-width="6"
         id="path19" />
      <path
         d="M0,0 L60,30 M60,0 L0,30"
         clip-path="url(#t)"
         stroke="#cf142b"
         stroke-width="4"
         id="path21" />
      <path
         d="M30,0 v30 M0,15 h60"
         stroke="#ffffff"
         stroke-width="10"
         id="path23" />
      <path
         d="M30,0 v30 M0,15 h60"
         stroke="#cf142b"
         stroke-width="6"
         id="path25" />
    </g>
    <path
       id="Map-outline"
       d="M597.89,706.273 C597.132,705.512,594.699,704.644,592.487,704.339 C589.889,703.983,588.461,703.351,588.461,702.553 C588.461,701.466,586.708,698.239,584.709,695.646 C578.938,688.173,576.362,678.555,578.061,670.843 C578.512,668.806,578.256,667.654,577.076,666.388 C573.489,662.536,571.986,655.732,572.274,644.657 C572.587,632.622,573.297,631.125,578.067,632.396 C580.443,633.03,580.937,633.572,580.813,635.406 C580.705,637.004,581.274,637.924,582.799,638.617 C583.972,639.154,584.933,640.163,584.933,640.864 C584.933,641.563,586.085,642.388,587.488,642.696 C588.893,643.006,590.741,644.029,591.596,644.973 C592.449,645.915,593.633,646.686,594.224,646.686 C594.818,646.686,595.764,647.242,596.326,647.916 C597.966,649.894,602.762,650.342,607.389,648.947 C609.737,648.243,612.828,647.9,614.263,648.186 C615.739,648.48,617.123,648.297,617.455,647.76 C617.776,647.242,619.621,646.686,621.556,646.53 C626.263,646.149,627.054,645.194,627.329,639.564 C627.558,634.926,627.253,633.38,625.316,629.323 C624.108,626.79,624.933,624.858,627.78,623.563 C629.673,622.7,630.224,622.74,630.815,623.79 C631.211,624.496,632.363,626.026,633.375,627.194 C634.627,628.635,635.218,630.526,635.218,633.097 C635.218,635.177,635.614,637.125,636.1,637.425 C637.74,638.439,637.101,642.41,635.218,642.901 C634.246,643.157,633.453,643.713,633.453,644.142 C633.453,644.571,632.36,644.924,631.028,644.927 L628.602,644.93 L631.583,647.725 L634.565,650.52 L634.106,657.879 C633.852,661.926,633.165,665.819,632.576,666.529 C631.988,667.238,631.4,670.109,631.268,672.912 C630.912,680.479,629.954,683.873,628.262,683.549 C627.477,683.401,626.708,682.384,626.555,681.291 C626.398,680.196,625.902,679.53,625.451,679.807 C624.356,680.485,624.402,684.375,625.513,685.06 C627.027,685.996,626.482,688.923,624.607,689.927 C623.622,690.453,623.05,691.262,623.336,691.724 C623.622,692.188,623.59,694.351,623.261,696.531 C622.702,700.273,622.508,700.497,619.899,700.47 C618.378,700.457,616.387,699.879,615.478,699.188 C614.004,698.074,613.648,698.147,612.27,699.85 C611.417,700.904,610.91,702.264,611.145,702.874 C611.895,704.83,609.264,706.408,604.2,707.039 C600.308,707.528,598.983,707.366,597.89,706.273Z M558.469,690.353 C558.469,689.627,558.07,689.031,557.587,689.031 C557.102,689.031,556.705,688.238,556.705,687.267 C556.705,686.288,557.293,685.502,558.027,685.502 C558.764,685.502,559.352,686.288,559.352,687.267 C559.352,688.238,559.748,689.031,560.234,689.031 C560.717,689.031,561.116,689.627,561.116,690.353 C561.116,691.082,560.52,691.678,559.792,691.678 C559.063,691.678,558.469,691.082,558.469,690.353Z M558.688,682.419 C556.349,679.761,558.229,678.078,560.736,680.587 C561.429,681.28,561.998,682.273,561.998,682.794 C561.998,684.132,559.997,683.905,558.688,682.419Z M562.581,628.816 C561.491,628.02,560.954,626.042,560.674,621.818 L560.285,615.931 L563.407,614.9 C567.998,613.384,569.28,615.332,568.605,622.797 C568.322,625.91,567.888,628.789,567.64,629.191 C566.968,630.278,564.313,630.081,562.581,628.816Z M570.114,628.867 C568.702,627.456,568.762,624.631,570.202,624.631 C571.837,624.631,573.464,626.479,573.464,628.338 C573.464,630.151,571.681,630.434,570.114,628.867Z M569.949,623.088 C569.989,620.9,571.201,618.456,572.245,618.456 C573.599,618.456,573.683,618.874,572.908,621.766 C572.428,623.56,569.919,624.68,569.949,623.088Z M618.607,617.887 C618.777,616.999,619.643,616.133,620.531,615.96 C621.696,615.737,622.06,616.098,621.833,617.263 C621.664,618.151,620.798,619.017,619.91,619.19 C618.745,619.414,618.383,619.052,618.607,617.887Z M602.676,609.715 C602.002,609.289,601.406,607.708,601.352,606.202 C601.254,603.486,600.383,602.542,599.744,604.46 C599.272,605.881,595.519,604.524,595.519,602.933 C595.519,602.22,594.826,601.381,593.976,601.068 C593.126,600.753,591.639,599.628,590.668,598.57 C589.697,597.51,587.682,596.237,586.19,595.74 C584.695,595.244,582.356,593.798,580.989,592.532 C579.621,591.265,577.627,590.229,576.561,590.229 C574.476,590.229,571.7,592.727,571.7,594.604 C571.7,595.239,570.664,596.647,569.399,597.734 C567.399,599.452,566.231,599.687,560.55,599.509 C555.246,599.344,553.619,598.945,551.99,597.413 C550.881,596.372,549.602,595.516,549.149,595.511 C548.695,595.506,546.977,594.116,545.331,592.425 C542.094,589.09,540.826,588.596,540.826,590.668 C540.826,591.397,540.229,591.993,539.501,591.993 C538.773,591.993,538.179,591.427,538.179,590.739 C538.179,590.051,536.987,589.225,535.533,588.904 C534.076,588.586,532.886,587.957,532.886,587.512 C532.886,587.064,532.09,586.7,531.122,586.7 C530.151,586.7,529.357,587.096,529.357,587.582 C529.357,588.065,527.572,588.464,525.386,588.464 C521.795,588.464,521.418,588.265,521.418,586.365 C521.418,583.649,519.483,581.93,518.043,583.368 C517.25,584.164,517.007,583.994,517.007,582.642 C517.007,581.145,516.537,580.932,513.918,581.24 C512.029,581.458,510.831,581.218,510.831,580.619 C510.831,580.082,510.397,579.642,509.871,579.642 C508.611,579.642,505.606,576.014,505.568,574.449 C505.552,573.777,504.645,572.299,503.552,571.163 C499.983,567.451,498.481,565.541,498.481,564.718 C498.481,564.273,498.017,563.755,497.448,563.566 C495.769,563.005,495.723,553.897,497.394,552.043 C498.697,550.595,498.653,549.988,496.846,544.374 C495.489,540.16,494.348,538.106,493.152,537.726 C492.041,537.373,491.423,536.388,491.423,534.969 C491.423,532.711,489.629,530.24,487.989,530.24 C487.484,530.24,486.648,529.447,486.13,528.475 C485.364,527.04,484.282,526.711,480.365,526.711 C477.713,526.711,475.544,527.107,475.544,527.593 C475.544,528.079,474.948,528.475,474.222,528.475 C473.332,528.475,472.897,529.363,472.897,531.176 C472.897,533.221,472.522,533.841,471.354,533.722 C467.671,533.348,464.984,533.868,463.635,535.217 C462.365,536.488,461.588,536.534,457.379,535.592 C454.738,535.001,451.404,534.775,449.968,535.09 C448.231,535.471,446.693,535.198,445.377,534.276 C444.284,533.51,442.687,532.886,441.823,532.886 C440.963,532.886,440.256,532.29,440.256,531.562 C440.256,530.836,440.852,530.24,441.581,530.24 C442.309,530.24,442.903,529.857,442.903,529.393 C442.903,527.544,446.868,524.947,449.685,524.947 C451.592,524.947,452.607,524.52,452.607,523.719 C452.607,522.392,456.562,521.032,457.94,521.885 C458.405,522.17,458.782,522.014,458.782,521.536 C458.782,521.062,460.965,520.722,463.635,520.784 C466.781,520.859,468.486,521.272,468.486,521.965 C468.486,522.553,468.017,523.19,467.445,523.382 C466.039,523.851,467.218,526.711,468.818,526.711 C469.584,526.711,469.932,526.101,469.698,525.168 C469.441,524.148,470.172,523.139,471.85,522.198 C474.745,520.576,476.1,516.165,474.581,513.327 C473.895,512.045,473.917,510.866,474.656,509.083 C475.366,507.37,475.404,506.11,474.783,504.972 C474.289,504.071,473.601,502.142,473.25,500.688 C472.735,498.54,472.541,498.373,472.228,499.805 C472.018,500.774,471.486,501.945,471.046,502.406 C470.609,502.867,470.25,503.984,470.25,504.888 C470.25,505.792,469.371,509.051,468.297,512.129 L466.344,517.724 L457.703,518.345 C450.519,518.857,448.695,518.723,446.896,517.544 C445.703,516.764,443.922,516.125,442.935,516.125 C440.41,516.125,440.698,513.961,443.385,512.736 C446.321,511.401,446.917,511.441,448.576,513.103 C450.055,514.579,450.403,514.193,451.031,510.389 C451.274,508.916,452.005,508.625,455.493,508.625 C459.235,508.625,459.667,508.42,459.667,506.642 C459.664,505.549,459.268,504.656,458.782,504.656 C457.401,504.656,457.751,500.27,459.254,498.767 C459.999,498.022,460.385,496.717,460.115,495.864 C459.505,493.943,463.746,485.58,466.309,483.646 C467.99,482.377,468.103,481.833,467.323,478.762 C466.698,476.291,466.741,474.837,467.475,473.661 C468.108,472.646,468.16,472.015,467.612,472.015 C467.121,472.015,466.722,472.317,466.722,472.689 C466.722,473.059,465.829,473.752,464.736,474.233 C463.441,474.802,462.457,476.326,461.898,478.633 C461.429,480.573,460.536,482.685,459.915,483.327 C459.292,483.967,458.782,485.105,458.782,485.855 C458.782,486.799,458.221,487.072,456.961,486.742 C455.806,486.44,453.742,487.209,451.32,488.844 C449.218,490.263,447.06,491.423,446.526,491.423 C445.989,491.423,445.549,492.02,445.549,492.748 C445.549,493.474,445.18,494.07,444.726,494.07 C443.388,494.07,442.522,497.742,442.803,502.231 C443.013,505.584,442.784,506.42,441.662,506.42 C440.844,506.42,440.256,505.681,440.256,504.656 C440.256,503.475,439.668,502.892,438.476,502.892 C436.976,502.892,436.789,503.278,437.289,505.317 C437.615,506.653,438.211,507.961,438.616,508.228 C439.018,508.495,439.606,509.998,439.919,511.565 L440.488,514.417 L436.625,513.85 C429.214,512.763,425.701,511.196,425.682,508.965 C425.669,507.521,424.708,506.426,422.375,505.196 C420.017,503.955,419.083,502.884,419.083,501.413 C419.083,499.981,419.594,499.363,420.775,499.363 C423.071,499.363,423.392,497.893,421.984,493.808 C420.77,490.288,418.965,487.895,417.521,487.895 C417.076,487.895,415.776,485.14,414.629,481.776 C412.449,475.371,411.084,474.2,406.981,475.231 C405.365,475.635,404.969,475.371,404.969,473.882 C404.969,472.865,404.175,471.535,403.204,470.928 C401.847,470.081,401.44,468.872,401.44,465.689 C401.44,462.324,401.111,461.445,399.675,460.989 C398.55,460.63,397.911,459.654,397.911,458.283 C397.911,456.478,397.485,456.135,395.213,456.135 C393.624,456.135,392.742,456.503,393.066,457.026 C393.891,458.364,392.669,461.429,391.307,461.429 C390.651,461.429,389.853,460.239,389.531,458.782 C389.213,457.328,388.584,456.135,388.139,456.135 C387.692,456.135,387.327,455.542,387.327,454.814 C387.327,454.085,386.807,453.489,386.176,453.489 C385.542,453.489,383.656,452.477,381.983,451.242 C379.501,449.405,378.894,449.243,378.659,450.36 C378.349,451.852,374.977,452.283,374.977,450.832 C374.977,450.287,373.612,450.16,371.448,450.505 C369.444,450.826,367.919,450.713,367.919,450.244 C367.919,449.48,362.523,445.261,357.333,441.967 C353.872,439.768,351.079,439.328,349.655,440.75 C348.724,441.681,345.865,442.053,338.963,442.139 C322.946,442.339,314.988,443.21,314.988,444.764 C314.988,445.196,314.384,445.549,313.644,445.549 C312.908,445.549,310.733,446.588,308.815,447.859 C306.897,449.129,304.722,449.933,303.983,449.65 C303.182,449.343,302.637,449.62,302.637,450.335 C302.637,451.66,300.768,452.607,298.153,452.607 C297.222,452.607,296.462,453.003,296.462,453.489 C296.462,453.975,294.875,454.371,292.933,454.371 C290.993,454.371,289.404,454.768,289.404,455.253 C289.404,455.739,288.411,456.135,287.2,456.135 C285.986,456.135,284.993,456.632,284.993,457.239 C284.993,458.073,282.193,458.302,273.474,458.173 C263.697,458.03,261.722,458.232,260.419,459.497 C255.8,463.986,251.823,466.722,249.919,466.722 C248.667,466.722,246.735,467.828,245.295,469.369 C243.935,470.825,242.43,472.015,241.949,472.015 C241.467,472.015,240.86,472.573,240.598,473.256 C240.336,473.939,238.804,474.77,237.196,475.107 C231.36,476.323,229.226,478.808,226.718,487.306 C226.048,489.573,225.193,491.423,224.813,491.423 C224.435,491.423,224.125,491.93,224.125,492.551 C224.125,494.143,220.893,496.717,218.894,496.717 C217.969,496.717,217.081,497.083,216.919,497.534 C216.361,499.082,212.087,499.552,210.744,498.208 C209.646,497.11,208.58,497.089,203.338,498.06 C199.923,498.694,191.859,499.136,185.087,499.058 C178.416,498.983,172.958,499.22,172.958,499.584 C172.958,499.948,172.335,500.245,171.571,500.245 C170.808,500.245,169.553,500.876,168.781,501.648 C167.878,502.552,166.332,502.929,164.433,502.708 C162.814,502.52,161.489,502.681,161.489,503.07 C161.489,503.456,160.559,503.774,159.417,503.774 C158.279,503.774,156.458,504.548,155.368,505.492 C154.278,506.437,152.937,507.359,152.387,507.543 C151.836,507.726,151.483,509.137,151.599,510.678 C151.718,512.218,151.41,513.478,150.917,513.478 C150.423,513.478,150.021,514.031,150.021,514.706 C150.021,516.613,145.672,517.336,143.894,515.725 C141.995,514.007,141.199,513.996,141.199,515.682 C141.199,516.411,140.802,517.007,140.317,517.007 C139.831,517.007,139.435,517.738,139.435,518.628 C139.435,519.521,138.442,520.706,137.23,521.256 C135.725,521.941,135.024,522.969,135.024,524.485 C135.024,525.875,134.527,526.711,133.702,526.711 C132.973,526.711,132.377,527.107,132.377,527.593 C132.377,528.079,131.384,528.475,130.173,528.475 C128.8,528.475,127.966,528.974,127.966,529.797 C127.966,530.717,127.043,531.122,124.953,531.122 C123.293,531.122,121.788,531.575,121.602,532.131 C121.351,532.884,120.466,532.875,118.105,532.098 C115.78,531.33,113.427,531.297,109.219,531.969 C103.327,532.91,95.325,532.352,95.325,531 C95.325,530.582,94.7314,530.24,94.0032,530.24 C93.2747,530.24,92.6785,529.881,92.6785,529.438 C92.6785,528.999,91.8853,528.848,90.9141,529.101 C89.7324,529.411,89.1497,529.128,89.1497,528.243 C89.1497,527.518,87.8601,526.398,86.2847,525.756 C84.7063,525.114,82.9609,523.983,82.4023,523.247 C81.7712,522.413,79.7773,521.86,77.1094,521.779 C74.7568,521.707,72.5959,521.596,72.3098,521.534 C71.1526,521.278,69.5042,516.238,68.8242,510.875 C67.8584,503.224,69.6067,499.983,72.9197,503.296 C73.6265,504.003,74.792,504.357,75.5095,504.082 C77.9241,503.153,78.5015,497.083,77.2361,485.922 C76.5913,480.243,76.47,480.006,74.4763,480.505 C72.79,480.929,72.3882,480.68,72.3882,479.218 C72.3882,478.223,73.2488,476.806,74.3008,476.07 C75.7981,475.021,76.1785,473.928,76.0625,471.003 C75.9114,467.102,72.8252,461.448,70.845,461.437 C70.238,461.431,69.7415,460.485,69.7415,459.333 C69.7415,458.178,69.1479,456.74,68.4197,456.135 C67.6912,455.531,67.095,454.493,67.095,453.823 C67.095,453.155,66.6985,452.607,66.2126,452.607 C65.7297,452.607,65.3306,452.013,65.3306,451.285 C65.3306,450.557,64.9177,449.96,64.408,449.96 C63.2883,449.96,59.1768,441.37,59.166,439.004 C59.1606,438.071,58.5427,436.63,57.79,435.799 C56.9512,434.871,56.2227,431.782,55.9043,427.79 C55.2893,420.101,53.9834,417.109,49.3594,412.792 C47.3577,410.923,45.925,408.767,45.925,407.623 C45.925,406.425,44.0691,403.806,41.166,400.903 C35.9377,395.675,35.5979,395.06,34.3811,388.677 C33.5286,384.201,30.6743,379.218,26.3118,374.588 C24.9683,373.161,23.8704,371.475,23.8704,370.838 C23.8704,370.204,23.0745,369.684,22.106,369.684 C21.1348,369.684,20.3389,369.384,20.3389,369.023 C20.3362,368.658,19.168,367.577,17.738,366.619 C16.3083,365.661,14.9136,363.975,14.6357,362.869 C14.3579,361.766,13.543,360.862,12.8254,360.862 C12.1079,360.862,11.5198,360.117,11.5198,359.208 C11.5198,358.299,10.1763,356.089,8.53857,354.301 C5.75977,351.266,3.87134,345.77,4.98828,343.963 C6.10522,342.155,8.02051,343.569,10.5593,348.069 C12.4856,351.481,13.8345,352.922,15.105,352.922 C16.8398,352.922,16.8533,352.825,15.4639,350.47 C14.355,348.595,14.2014,347.297,14.8083,344.958 C15.615,341.842,18.5771,340.078,18.5771,342.713 C18.5771,343.474,18.9739,344.1,19.4595,344.1 C19.9451,344.1,20.3416,344.653,20.3416,345.328 C20.3416,346.66,22.1897,347.629,24.7283,347.629 C25.6968,347.629,26.5439,348.498,26.8784,349.833 C27.5393,352.466,29.1636,352.779,29.1636,350.275 C29.1636,349.304,28.7913,348.511,28.3406,348.511 C27.8875,348.511,27.2642,347.718,26.9565,346.747 C26.6492,345.776,25.999,344.982,25.5107,344.982 C24.1589,344.982,22.106,342.63,22.106,341.081 C22.106,340.323,20.9729,338.694,19.5916,337.464 C18.2075,336.231,16.543,333.605,15.8901,331.628 C15.2373,329.651,14.1851,327.835,13.551,327.592 C12.1995,327.072,8.87305,319.914,8.87305,317.524 C8.87305,316.615,8.27686,315.87,7.54858,315.87 C6.82275,315.87,6.22656,315.506,6.22656,315.061 C6.22656,313.25,7.37036,311.459,8.52515,311.459 C9.29663,311.459,9.75537,310.493,9.75537,308.864 C9.75537,307.439,10.1626,306.018,10.6646,305.71 C11.1904,305.384,11.3362,303.878,11.0071,302.127 C10.562,299.753,10.7292,299.108,11.7976,299.108 C12.5449,299.108,13.3245,299.605,13.5322,300.212 C13.7427,300.819,13.7561,300.52,13.5647,299.551 C13.3704,298.58,13.0007,296.397,12.7417,294.698 C12.1726,291.001,9.60693,285.018,8.58179,285.004 C7.69678,284.993,8.73828,279.681,9.90918,278.225 C10.3677,277.653,10.9126,275.47,11.1204,273.371 C11.3254,271.272,11.9541,268.445,12.5151,267.083 C13.3677,265.019,13.9856,264.655,16.2759,264.878 C18.812,265.124,18.998,265.372,18.7742,268.151 C18.499,271.558,20.123,277.294,21.178,276.641 C21.561,276.406,22.1301,274.599,22.4458,272.624 C22.7615,270.652,23.4709,268.162,24.0242,267.091 C24.5745,266.022,25.292,264.549,25.6157,263.821 C25.9421,263.095,29.3523,260.597,33.1995,258.271 C37.0439,255.949,40.3513,253.58,40.5457,253.013 C40.7427,252.444,42.1616,250.774,43.6995,249.298 C45.2371,247.825,46.7397,245.958,47.0366,245.152 C47.3333,244.343,48.6633,243.153,49.9934,242.505 C52.7588,241.156,53.8054,239.122,51.7307,239.122 C50.9241,239.122,50.3359,238.378,50.3359,237.358 C50.3359,236.063,50.9241,235.594,52.5403,235.594 C53.8459,235.594,54.7471,236.098,54.7471,236.832 C54.7471,237.638,55.3621,237.914,56.5005,237.614 C57.8523,237.261,58.1355,236.667,57.7253,235.04 C57.094,232.523,58.6831,230.3,61.1111,230.3 C62.1094,230.3,63.0481,229.548,63.3125,228.536 C63.5662,227.565,64.1489,226.771,64.6104,226.771 C66.3154,226.771,68.8594,228.638,68.8594,229.89 C68.8594,230.667,69.7092,231.183,70.9934,231.183 C72.1643,231.183,73.2703,231.62,73.4485,232.156 C74.0933,234.091,81.4797,231.096,84.9519,227.492 C87.0103,225.355,89.9133,223.529,92.657,222.641 C96.6875,221.341,97.0112,221.033,96.5039,219.007 C95.9104,216.646,95.6406,216.676,101.417,218.47 C102.62,218.845,103.265,218.462,103.691,217.119 C104.716,213.881,108.642,210.711,112.216,210.234 C115.119,209.843,115.691,210.056,116.32,211.761 C116.962,213.496,117.213,213.582,118.34,212.451 C119.05,211.742,121.114,210.884,122.924,210.544 C125.813,210.002,126.11,209.721,125.328,208.262 C124.033,205.839,124.238,203.834,125.784,203.834 C126.571,203.834,127.348,204.927,127.658,206.481 C127.95,207.935,128.346,209.128,128.543,209.128 C128.738,209.128,131.659,207.763,135.037,206.093 C141.695,202.801,149.139,197.087,149.139,195.266 C149.139,194.64,149.487,194.13,149.91,194.13 C150.334,194.13,150.925,192.917,151.221,191.433 C151.518,189.949,152.363,188.133,153.096,187.399 C153.933,186.563,154.235,185.271,153.903,183.946 C153.563,182.594,153.881,181.324,154.782,180.42 C155.56,179.643,156.196,178.44,156.196,177.747 C156.196,177.053,156.693,176.484,157.3,176.484 C157.904,176.481,160.111,174.69,162.202,172.502 C165.641,168.9,165.871,168.393,164.627,167.149 C163.011,165.533,163.054,165.798,162.841,156.196 C162.703,149.873,162.962,148.283,164.508,146.052 C165.517,144.596,166.639,143.274,167.004,143.112 C167.365,142.95,167.665,142.424,167.665,141.946 C167.665,140.603,170.025,138.552,171.571,138.552 C172.456,138.552,172.958,137.767,172.958,136.381 C172.958,133.721,176.273,130.454,178.623,130.799 C179.735,130.963,180.614,132.075,181.092,133.92 C181.502,135.523,182.403,136.788,183.129,136.788 C183.97,136.788,184.426,137.684,184.426,139.343 C184.426,140.916,185.265,142.694,186.617,143.975 C187.82,145.116,188.813,146.746,188.821,147.596 C188.829,148.446,189.234,149.139,189.719,149.139 C190.205,149.139,190.602,147.385,190.602,145.243 C190.602,142.912,191.044,141.196,191.702,140.975 C192.563,140.687,192.539,140.282,191.594,139.138 C190.931,138.331,189.927,137.67,189.366,137.67 C188.009,137.67,185.309,134.455,185.309,132.839 C185.309,132.134,186.126,131.12,187.13,130.583 C188.551,129.822,188.832,129.067,188.406,127.135 C187.55,123.237,188.325,123.172,203.171,125.948 C205.499,126.385,205.599,126.256,205.599,122.773 C205.599,120.779,205.219,119.144,204.757,119.144 C204.274,119.144,204.123,117.361,204.401,114.955 C204.868,110.916,204.784,110.722,202.108,109.567 C200.47,108.863,199.44,107.83,199.596,107.055 C199.92,105.472,205.807,103.297,209.829,103.278 C212.648,103.268,212.719,103.178,212.179,100.292 C211.669,97.5779,211.836,97.2676,214.1,96.6985 C215.621,96.3152,216.703,96.4421,216.897,97.0249 C217.07,97.5454,217.739,97.9717,218.381,97.9717 C220.059,97.9717,218.961,94.4834,216.59,92.2766 C215.524,91.2866,214.37,89.1848,214.024,87.6067 C213.447,84.9709,213.574,84.7417,215.6,84.7417 C216.811,84.7417,217.933,85.0789,218.095,85.489 C218.257,85.9016,220.075,86.4602,222.139,86.73 C225.806,87.2075,225.889,87.1643,225.889,84.6365 C225.889,82.6965,226.472,81.7903,228.244,80.9834 C229.72,80.3091,230.713,80.2334,230.905,80.7813 C231.711,83.0825,232.887,84.0698,234.223,83.5574 C235.348,83.1255,235.55,82.3215,235.113,79.9934 C234.333,75.8362,235.874,73.2732,239.152,73.2732 C240.59,73.2732,241.766,73.6697,241.766,74.1553 C241.766,75.8171,244.294,75.0376,244.879,73.1921 C245.297,71.8757,245.975,71.479,247.243,71.8108 C248.395,72.113,249.776,71.5195,251.168,70.1274 C252.35,68.9458,253.682,67.98,254.127,67.98 C255.649,67.98,261.174,70.9502,261.174,71.7678 C261.174,72.2156,262.197,72.3235,263.448,72.0105 C265.226,71.5654,266.103,71.927,267.482,73.6804 C268.45,74.9106,269.613,75.9197,270.066,75.9197 C270.52,75.9197,273.236,78.2991,276.101,81.2129 C278.969,84.1238,281.718,86.5032,282.212,86.5032 C282.706,86.5032,283.364,87.2991,283.671,88.2676 C284.232,90.0427,287.64,90.801,287.64,89.1499 C287.64,87.9709,290.839,88.0303,293.127,89.2551 C295.226,90.3801,308.813,90.8845,308.813,89.8379 C308.813,89.4602,309.468,89.1499,310.267,89.1499 C311.324,89.1499,310.968,88.4321,308.95,86.5032 C307.428,85.0491,305.783,83.8594,305.292,83.8594 C304.803,83.8594,304.401,83.2632,304.401,82.5347 C304.401,81.8064,304.76,81.2129,305.2,81.2129 C305.64,81.2129,305.804,80.4629,305.564,79.5457 C305.327,78.6311,305.562,77.614,306.09,77.2903 C306.616,76.9639,307.048,75.925,307.048,74.9836 C307.048,73.8667,307.655,73.2732,308.791,73.2732 C309.997,73.2732,311.084,72.0645,312.32,69.3506 C313.302,67.1948,314.106,65.0286,314.106,64.5403 C314.106,64.052,314.567,62.6409,315.128,61.4053 C316.164,59.1338,318.975,58.3325,319.577,60.1375 C319.782,60.7498,320.346,60.5825,321.082,59.6948 C322.078,58.4971,322.053,58.2759,320.934,58.2759 C319.973,58.2759,319.593,57.2642,319.555,54.6284 C319.504,50.8486,320.915,48.5718,323.305,48.5718 C324.185,48.5718,324.692,47.7866,324.692,46.4243 C324.692,45.0647,325.329,44.0771,326.432,43.7266 C328.596,43.0413,331.906,38.9541,331.21,37.8291 C330.376,36.4749,332.683,31.9126,334.49,31.3381 C337.674,30.3291,335.505,27.3992,331.571,27.3992 C330.058,27.3992,329.103,26.927,329.103,26.177 C329.103,25.5081,328.21,24.7175,327.117,24.4263 C323.783,23.5332,323.068,23.7761,323.553,25.6348 C323.953,27.1592,323.58,27.3992,320.826,27.3992 C317.17,27.3992,317.063,27.0027,318.948,20.6465 C319.884,17.501,320.901,15.9307,322.477,15.2131 C323.696,14.6575,324.692,13.6267,324.692,12.9199 C324.692,10.9749,327.997,10.2896,329.61,11.9001 C330.371,12.6609,331.561,13.2842,332.254,13.2842 C332.947,13.2842,333.514,13.6699,333.514,14.1448 C333.514,15.3562,338.92,14.2068,340.771,12.6042 C342.657,10.9695,347.526,11.6008,350.664,13.8857 C353.17,15.7122,353.839,20.3418,351.597,20.3418 C350.872,20.3418,350.275,20.7383,350.275,21.2239 C350.275,21.7095,349.679,22.1062,348.951,22.1062 C348.225,22.1062,347.629,22.6133,347.629,23.2339 C347.629,24.4775,344.559,27.3992,343.25,27.3992 C342.794,27.3992,342.106,27.936,341.718,28.5916 C341.329,29.25,340.417,30.0107,339.689,30.2886 C338.961,30.5637,339.657,30.8201,341.232,30.8579 C342.811,30.8955,344.1,30.5315,344.1,30.0459 C344.1,29.5603,344.893,29.1636,345.865,29.1636 C346.976,29.1636,347.629,29.7517,347.629,30.75 C347.629,31.624,348.104,32.8164,348.686,33.3965 C350.07,34.7805,355.318,34.7671,355.779,33.3777 C356.057,32.552,356.882,32.5278,359.335,33.2805 C362.699,34.3137,364.266,33.4612,365.518,29.9082 C365.802,29.1042,367.248,28.1816,368.731,27.8552 C371.34,27.2832,373.393,25.6348,371.499,25.6348 C370.984,25.6348,370.566,24.6555,370.566,23.4578 C370.566,21.8228,370.212,21.4155,369.152,21.8201 C368.375,22.1196,367.39,21.8093,366.961,21.1321 C366.403,20.2527,366.177,20.2148,366.168,21.0027 C366.149,22.4326,361.941,22.4326,360.527,21.0027 C359.928,20.3958,359.162,19.1682,358.822,18.2725 C358.482,17.3767,357.392,16.4326,356.399,16.1736 C353.996,15.5449,354.457,12.2537,357.112,11.0908 C358.204,10.6106,359.097,9.72583,359.097,9.12134 C359.097,8.32813,360.201,8.17725,363.095,8.57373 C366.093,8.98389,367.849,8.71411,370.118,7.49194 C371.78,6.59619,373.369,6.08911,373.644,6.36694 C373.922,6.64209,374.388,8.9082,374.685,11.4011 C375.036,14.3687,375.635,15.9307,376.423,15.9307 C377.081,15.9307,377.623,15.5342,377.623,15.0486 C377.623,13.624,381.435,14.0935,383.432,15.7634 C384.443,16.6106,385.547,18.3992,385.884,19.74 C386.569,22.4675,387.905,22.1357,389.124,18.9333 C390.117,16.3167,393.503,15.9846,393.503,18.5044 C393.503,21.1348,394.452,22.9883,395.801,22.9883 C396.479,22.9883,397.029,22.5916,397.029,22.1062 C397.029,20.3848,401.553,21.2563,403.897,23.428 C405.206,24.6421,406.776,25.6348,407.386,25.6348 C407.998,25.6348,408.497,26.0315,408.497,26.5171 C408.497,27.8308,417.093,27.623,417.573,26.2959 C417.891,25.4189,418.366,25.4243,419.89,26.3281 C421.08,27.0322,422.971,27.2454,424.86,26.8921 C428.165,26.2715,428.674,27.0754,426.837,30.0161 C426.249,30.9575,426.028,31.9883,426.346,32.3066 C427.377,33.3372,432.316,30.5583,432.316,28.9478 C432.316,27.178,432.958,27.0916,443.976,27.375 C450.632,27.5476,451.984,27.3237,454.021,25.7212 C457.304,23.1394,459.664,23.2878,459.664,26.0745 C459.664,27.4478,460.163,28.2815,460.989,28.2815 C462.586,28.2815,462.756,30.5771,461.208,31.2869 C460.603,31.5647,460.943,31.5889,461.966,31.3408 C464.779,30.6555,466.932,31.7886,466.436,33.696 C466.198,34.5996,466.366,35.3389,466.805,35.3389 C468.716,35.3389,467.304,38.3174,463.587,42.1455 C459.864,45.9739,459.61,46.5242,460.136,49.6294 C460.584,52.292,460.425,52.9827,459.359,52.9827 C458.62,52.9827,457.511,54.3694,456.899,56.0664 C455.572,59.738,452.828,60.9763,451.139,58.667 C450.502,57.7957,449.688,57.3721,449.334,57.7256 C448.978,58.0815,449.272,58.74,449.987,59.1877 C451.115,59.8999,451.091,60.3506,449.782,62.668 C448.333,65.2363,448.342,65.3335,450.001,65.3335 C450.95,65.3335,451.725,65.927,451.725,66.6553 C451.725,67.3838,452.121,67.98,452.607,67.98 C453.092,67.98,453.489,67.427,453.489,66.7551 C453.489,64.8533,459.395,64.0547,461.07,65.73 C461.823,66.4827,462.764,67.0979,463.161,67.0979 C464.434,67.0979,465.146,71.7273,463.984,72.4475 C463.174,72.9468,463.269,73.4756,464.375,74.5789 C466.204,76.408,466.355,81.2129,464.58,81.2129 C463.886,81.2129,462.697,80.5869,461.933,79.8262 C461.17,79.0627,460.546,78.863,460.546,79.3838 C460.546,79.9043,459.554,80.3306,458.342,80.3306 C457.128,80.3306,456.135,79.9314,456.135,79.4485 C456.135,78.9629,454.895,78.5662,453.378,78.5662 H450.618 L451.029,74.2849 L451.441,70.0034 L448.717,70.9773 C445.544,72.1077,444.702,73.0466,444.675,75.4773 C444.664,76.4646,443.588,77.8513,442.236,78.6257 C440.904,79.3865,439.22,81.1724,438.492,82.5969 C437.763,84.0186,436.255,86.1121,435.138,87.2505 C432.869,89.5681,432.964,90.9331,435.486,92.2388 C440.871,95.0229,450.883,102.005,451.28,103.251 C451.657,104.438,452.763,104.665,457.22,104.471 C461.677,104.274,462.988,104.544,464.27,105.917 C465.133,106.845,465.84,108.016,465.84,108.523 C465.84,109.027,466.482,109.44,467.267,109.44 C468.311,109.44,468.581,110.031,468.27,111.647 C468.038,112.858,468.092,113.854,468.389,113.854 C468.686,113.854,470.081,114.847,471.491,116.058 C472.9,117.272,474.964,118.262,476.078,118.262 C477.983,118.262,482.601,121.675,482.601,123.083 C482.601,123.933,487.708,128.687,489.856,129.836 C490.778,130.33,492.799,130.767,494.345,130.804 C495.891,130.842,498.465,131.568,500.059,132.415 C503.793,134.398,506.585,133.788,505.921,131.136 C505.231,128.382,507.893,126.356,513.839,125.109 C518.105,124.214,518.995,124.251,519.688,125.349 C520.948,127.338,520.687,129.73,519.211,129.73 C518.485,129.73,517.889,130.127,517.889,130.613 C517.889,131.098,517.093,131.495,516.125,131.495 C515.153,131.495,514.36,131.892,514.36,132.377 C514.36,132.863,513.394,133.259,512.218,133.259 C511.039,133.259,509.48,133.855,508.751,134.584 C508.023,135.31,506.903,135.919,506.261,135.933 C505.527,135.949,505.668,136.294,506.642,136.858 C507.489,137.355,508.185,138.561,508.185,139.543 C508.185,141.655,509.515,143.12,513.143,144.998 C514.611,145.756,516.327,146.997,516.958,147.758 C517.589,148.518,518.849,149.139,519.761,149.139 C520.67,149.139,521.418,149.535,521.418,150.021 C521.418,150.507,522.011,150.903,522.74,150.903 C523.468,150.903,524.064,151.354,524.064,151.907 C524.064,153.593,531.51,152.061,536.315,149.382 C539.922,147.372,540.81,146.387,541.282,143.875 C542.026,139.923,544.109,135.922,546.575,133.702 C547.654,132.73,549.259,129.555,550.139,126.644 C551.021,123.733,552.165,121.022,552.68,120.623 C553.325,120.121,553.274,119.754,552.513,119.447 C551.204,118.915,551.024,116.498,552.294,116.498 C552.777,116.498,553.177,115.421,553.177,114.102 C553.177,110.892,555.81,104.147,557.064,104.147 C558.186,104.147,560.272,96.3801,559.252,96.0051 C558.351,95.6758,558.008,83.9294,558.818,81.1104 C559.363,79.2163,559.155,78.72,557.652,78.3262 C556.298,77.9727,555.823,77.1392,555.823,75.1184 C555.823,73.5239,556.282,72.3882,556.924,72.3882 C557.547,72.3855,558.07,71.1958,558.127,69.6472 C558.181,68.1418,558.578,66.6553,559.009,66.3425 C559.821,65.7544,561.467,62.5222,562.33,59.8191 C562.651,58.8154,562.36,58.2759,561.499,58.2759 C559.047,58.2759,559.066,55.6536,561.534,53.3657 C563.998,51.0835,564.024,48.5718,561.583,48.5718 C560.671,48.5718,560.234,47.7139,560.234,45.9253 C560.234,44.4685,560.657,43.2786,561.178,43.2786 C563.18,43.2786,565.047,40.2786,564.966,37.1843 C564.896,34.4729,565.279,33.8254,567.632,32.6924 C569.555,31.7644,570.461,30.6421,570.656,28.9424 C570.81,27.6096,571.306,26.5171,571.759,26.5171 C572.212,26.5171,572.585,25.821,572.587,24.9739 C572.598,21.8445,574.465,16.813,575.617,16.813 C576.27,16.813,577.033,16.2168,577.314,15.4883 C577.611,14.7114,577.325,14.1663,576.621,14.1663 C574.886,14.1663,574.508,12.553,575.01,7.32202 L575.455,2.698 H579.313 C582.407,2.698,583.168,3.00537,583.168,4.25195 C583.168,5.10693,584.056,6.19971,585.143,6.67993 C586.228,7.15747,587.512,8.74097,587.997,10.1951 C588.483,11.6521,589.125,13.0413,589.422,13.2842 C590.458,14.1287,592.063,17.7222,591.888,18.8066 C591.791,19.4082,592.017,20.6006,592.392,21.4558 C592.789,22.3677,592.624,23.5493,591.988,24.3157 C591.267,25.1816,591.105,26.946,591.502,29.5952 C591.966,32.6897,592.468,33.5745,593.757,33.5745 C594.669,33.5745,595.662,33.178,595.961,32.6924 C596.261,32.2068,597.871,31.8101,599.541,31.8101 C602.504,31.8101,602.576,31.8965,602.576,35.4009 C602.576,37.4297,601.996,39.5745,601.246,40.3245 C600.057,41.5142,600.094,41.9109,601.578,44.0125 C602.495,45.3074,603.531,48.4612,603.879,51.0188 C604.228,53.5789,605.069,56.231,605.752,56.9109 C606.432,57.5933,606.987,59.1689,606.987,60.418 C606.987,62.2498,606.564,62.6868,604.783,62.6868 C603.453,62.6868,602.576,63.1887,602.576,63.9548 C602.576,64.791,603.405,65.1663,605.002,65.0581 C606.936,64.926,607.487,65.3118,607.721,66.9656 C608.282,70.9207,607.138,73.2732,604.651,73.2732 C602.482,73.2732,602.377,73.4646,602.884,76.5779 C603.178,78.3962,604.022,80.3252,604.762,80.8647 C606.262,81.9629,606.594,84.7417,605.223,84.7417 C603.836,84.7417,604.187,86.4143,605.976,88.3325 C607.319,89.7729,608.029,89.9294,609.947,89.2012 C611.231,88.7129,612.281,87.9063,612.281,87.4097 C612.281,86.9106,613.214,86.5032,614.353,86.5032 C616.581,86.5032,620.22,83.8433,620.22,82.2109 C620.22,81.6606,620.816,81.2129,621.545,81.2129 C623.131,81.2129,623.347,83.8459,621.763,83.8865 C619.451,83.9458,624.205,86.5032,626.63,86.5032 C628.575,86.5032,629.102,86.8674,628.878,88.0491 C628.716,88.8962,627.693,89.719,626.609,89.8728 C623.919,90.2585,624.062,93.0186,626.838,94.2839 C628.049,94.8369,629.042,95.8027,629.042,96.4314 C629.042,97.0571,630.432,98.3198,632.131,99.2344 C633.828,100.149,635.218,101.231,635.218,101.641 C635.218,102.048,635.814,102.383,636.542,102.383 C637.365,102.383,637.864,103.216,637.864,104.59 C637.864,105.801,637.424,106.794,636.887,106.794 C636.289,106.794,636.121,107.638,636.453,108.965 C636.752,110.158,636.453,112.718,635.787,114.652 L634.575,118.168 L637.322,118.438 C639.399,118.64,640.138,119.188,640.352,120.69 C640.565,122.182,640.195,122.673,638.86,122.673 C636.386,122.673,636.024,123.652,637.087,127.494 C637.686,129.671,637.705,131.125,637.141,131.692 C635.59,133.24,637.67,137.767,641.806,141.844 C645.512,145.497,646.894,148.257,645.013,148.257 C644.201,148.257,646.481,156.412,648.572,160.979 C649.497,163,649.516,163.634,648.661,163.92 C648.059,164.12,647.568,165.639,647.568,167.298 C647.568,168.954,647.172,170.311,646.686,170.311 C645.267,170.311,645.658,172.219,648.051,176.927 C649.3,179.387,650.091,182.144,649.837,183.156 C649.586,184.157,649.799,186.479,650.306,188.319 L651.229,191.665 L655.133,191.079 C659.026,190.494,659.037,190.499,659.037,193.194 C659.037,195.307,659.42,195.895,660.801,195.895 C661.977,195.895,662.565,196.483,662.565,197.659 C662.565,198.846,663.154,199.424,664.368,199.424 C665.358,199.424,666.647,199.81,667.233,200.281 C671.436,203.662,673.152,205.556,673.152,206.818 C673.152,207.957,673.667,208.148,675.493,207.69 C677.568,207.169,677.778,207.317,677.341,208.998 C676.939,210.533,677.233,210.892,678.89,210.892 C680.08,210.892,681.866,212.001,683.163,213.542 C684.399,215.009,685.637,215.797,685.942,215.306 C686.719,214.046,689.028,214.208,689.034,215.521 C689.036,216.129,690.021,217.817,691.222,219.271 C693.383,221.891,693.412,221.896,693.968,219.933 C694.276,218.843,695.08,217.95,695.749,217.95 C697.208,217.95,697.273,218.802,696.053,222.01 C695.393,223.747,695.419,224.592,696.148,225.042 C696.793,225.441,696.933,226.693,696.536,228.503 C696.048,230.729,695.552,231.247,694.235,230.902 C693.313,230.662,692.573,230.724,692.59,231.042 C692.641,232.1,695.913,235.594,696.852,235.594 C697.357,235.594,698.684,236.505,699.798,237.62 C701.368,239.19,701.838,240.679,701.886,244.256 C701.921,246.792,702.418,249.333,702.99,249.906 C703.616,250.531,704.028,253.801,704.028,258.156 C704.028,263.341,704.382,265.666,705.291,266.419 C706.338,267.288,706.602,266.967,706.834,264.541 C707.042,262.383,707.587,261.549,708.922,261.358 C711.075,261.05,714.615,263.88,714.615,265.912 C714.615,266.702,715.208,267.35,715.937,267.35 C716.665,267.35,717.261,266.953,717.261,266.468 C717.261,265.046,719.436,265.453,721.284,267.226 C725.94,271.685,726.965,273.557,726.965,277.625 C726.965,280.453,727.427,282.05,728.463,282.808 C729.806,283.79,729.836,284.284,728.762,287.537 C728.104,289.534,727.13,291.182,726.601,291.196 C726.072,291.212,726.337,291.627,727.184,292.121 C728.034,292.617,728.73,293.702,728.73,294.533 C728.73,295.364,729.609,296.435,730.686,296.915 C731.994,297.498,732.879,298.949,733.359,301.299 C734.268,305.74,734.902,306.344,738.666,306.344 C741.666,306.344,741.739,306.433,742.775,311.327 C744.248,318.282,745.254,320.591,747.399,321.932 C748.826,322.823,749.406,322.847,749.908,322.032 C750.768,320.643,754.311,321.768,754.311,323.429 C754.311,324.123,753.717,324.692,752.989,324.692 C750.587,324.692,751.294,331.137,753.99,333.835 C756.329,336.174,757.839,336.794,757.839,335.421 C757.839,335.014,758.862,334.213,760.114,333.643 C762.018,332.777,762.296,332.203,761.837,330.115 C761.239,327.382,763.078,325.027,765.186,325.836 C766.448,326.319,767.061,334.396,765.836,334.396 C765.469,334.396,764.233,335.208,763.089,336.201 C761.069,337.952,760.375,341.796,760.394,351.158 C760.397,352.372,759.944,354.751,759.385,356.451 C758.829,358.148,758.47,360.198,758.589,361.008 C758.711,361.817,758.217,363.891,757.494,365.621 C756.72,367.477,756.52,368.971,757.011,369.274 C758.193,370.005,758.042,377.408,756.838,377.81 C755.557,378.236,757.785,382.034,759.315,382.034 C759.895,382.034,760.645,382.906,760.982,383.969 C761.918,386.92,762.126,397.406,761.26,397.962 C760.837,398.232,760.229,401.607,759.908,405.462 C759.326,412.469,757.151,418.39,754.351,420.6 C753.426,421.331,753.342,421.684,754.092,421.703 C755.649,421.744,755.47,424.377,753.911,424.377 C752.757,424.377,750.801,429.211,750.787,432.098 C750.784,432.705,750.385,433.199,749.899,433.199 C749.417,433.199,749.017,433.795,749.017,434.523 C749.017,435.252,749.614,435.845,750.342,435.845 C752.063,435.845,752.012,436.86,750.121,440.181 C749.271,441.673,747.927,442.895,747.134,442.897 C746.341,442.9,745.043,443.896,744.248,445.11 C743.452,446.321,743.209,447.314,743.705,447.314 C744.202,447.314,744.606,447.91,744.606,448.638 C744.606,449.367,744.24,449.96,743.789,449.96 C743.338,449.96,742.48,452.146,741.884,454.814 C741.288,457.482,740.438,459.664,739.996,459.664 C739.556,459.664,739.432,460.406,739.718,461.313 C740.638,464.208,738.218,468.538,732.426,474.368 C730.335,476.469,728.875,478.598,729.183,479.094 C730.254,480.829,727.5,485.345,725.072,485.839 C723.375,486.184,722.597,487.007,722.231,488.844 C721.856,490.725,721.092,491.504,719.271,491.874 C713.797,492.983,712.429,493.8,709.672,497.599 C708.089,499.781,706.764,502.063,706.732,502.671 C706.699,503.278,706.114,503.774,705.428,503.774 C704.641,503.774,703.972,505.153,703.61,507.524 C702.747,513.176,701.49,515.793,699.116,516.875 C697.872,517.438,696.971,518.601,696.971,519.635 C696.971,520.614,696.394,521.418,695.689,521.418 C694.532,521.418,692.576,526.25,692.565,529.136 C692.563,529.743,691.864,530.285,691.017,530.342 C689.546,530.439,689.546,530.464,691.017,530.847 C692.897,531.34,693.089,534.651,691.235,534.651 C690.51,534.651,689.913,535.247,689.913,535.973 C689.913,536.752,689.099,537.302,687.928,537.311 C686.708,537.322,685.187,538.409,683.983,540.13 C682.904,541.673,682.116,543.027,682.232,543.143 L680.649,545.517 L679.111,547.802 C677.792,549.764,677.762,550.128,678.89,550.374 C680.87,550.802,680.476,553.177,678.429,553.177 C677.026,553.177,676.748,553.597,677.128,555.159 C677.452,556.495,676.91,557.949,675.472,559.603 C674.252,561.006,673.513,562.749,673.75,563.663 C673.983,564.542,673.61,565.824,672.928,566.507 C671.083,568.352,670.384,572.148,671.395,574.813 C672.771,578.428,670.883,583.765,667.972,584.496 C665.954,585.003,665.862,585.176,667.208,585.928 C669.523,587.223,669.102,589.346,666.534,589.346 C665.323,589.346,664.33,588.912,664.33,588.386 C664.33,587.032,657.286,588.324,655.626,589.98 C654.585,591.024,652.967,591.165,647.636,590.677 C643.961,590.339,639.302,589.762,637.287,589.392 C634.511,588.885,632.798,589.112,630.229,590.326 C628.362,591.211,626.436,591.944,625.948,591.961 C625.457,591.979,624.561,592.786,623.954,593.755 C623.347,594.726,622.497,595.519,622.065,595.519 C621.634,595.519,619.932,596.811,618.283,598.387 C614.698,601.818,611.563,604.341,610.886,604.341 C609.761,604.341,608.199,606.65,608.568,607.759 C609.308,609.977,605.226,611.331,602.676,609.715Z M584.714,586.036 C584.941,585.354,584.574,585.127,583.754,585.443 C583.022,585.723,581.601,585.51,580.592,584.97 C579.372,584.318,578.757,584.296,578.757,584.903 C578.757,585.405,579.354,585.818,580.082,585.818 C580.81,585.818,581.404,586.241,581.404,586.765 C581.404,588.046,584.253,587.42,584.714,586.036Z M404.086,460.547 C404.086,460.061,403.69,459.664,403.204,459.664 C402.721,459.664,402.322,460.061,402.322,460.547 C402.322,461.032,402.721,461.429,403.204,461.429 C403.69,461.429,404.086,461.032,404.086,460.547Z M23.9836,360.622 C22.5483,359.187,21.7283,360.53,23.1177,362.041 C23.7759,362.753,24.4531,362.942,24.6311,362.462 C24.8064,361.981,24.5151,361.153,23.9836,360.622Z M30.2183,355.79 C29.9622,354.455,29.5815,353.872,29.374,354.495 C28.999,355.617,29.6707,358.215,30.3369,358.215 C30.5259,358.215,30.4719,357.123,30.2183,355.79Z M597.283,42.3965 C597.283,41.9109,596.863,41.5142,596.35,41.5142 C595.837,41.5142,595.662,41.9109,595.961,42.3965 C596.261,42.8821,596.682,43.2786,596.895,43.2786 C597.108,43.2786,597.283,42.8821,597.283,42.3965Z M480.837,535.09 C480.837,534.208,481.719,533.768,483.483,533.768 C485.248,533.768,486.13,534.208,486.13,535.09 C486.13,535.973,485.248,536.415,483.483,536.415 C481.719,536.415,480.837,535.973,480.837,535.09Z M432.905,533.18 C431.566,531.839,432.446,530.24,434.523,530.24 C436.139,530.24,436.727,530.709,436.727,532.004 C436.727,533.725,434.221,534.497,432.905,533.18Z M442.021,521.418 C442.021,520.241,442.609,519.653,443.785,519.653 C444.961,519.653,445.549,520.241,445.549,521.418 C445.549,522.594,444.961,523.182,443.785,523.182 C442.609,523.182,442.021,522.594,442.021,521.418Z M408.033,484.59 C408.791,481.565,408.986,481.379,410.666,482.024 C412.444,482.707,412.423,485.79,410.631,486.478 C407.993,487.49,407.41,487.066,408.033,484.59Z M6.76074,335.68 C6.13208,329.556,6.44238,328.221,8.48462,328.221 C9.47729,328.221,9.75537,329.664,9.75537,334.838 C9.75537,339.832,9.46118,341.454,8.552,341.454 C7.72119,341.454,7.17065,339.676,6.76074,335.68Z M791.363,326.017 C791.363,325.288,791.959,324.692,792.687,324.692 C793.413,324.692,794.009,325.288,794.009,326.017 C794.009,326.742,793.413,327.339,792.687,327.339 C791.959,327.339,791.363,326.742,791.363,326.017Z M749.017,306.166 C749.017,305.187,749.605,304.402,750.342,304.402 C751.076,304.402,751.664,305.187,751.664,306.166 C751.664,307.148,751.076,307.93,750.342,307.93 C749.605,307.93,749.017,307.148,749.017,306.166Z M2.69775,302.198 C2.69775,300.433,3.13745,299.991,4.90186,299.991 C7.36768,299.991,7.74536,301.245,5.84888,303.142 C3.95215,305.038,2.69775,304.663,2.69775,302.198Z M757.839,298.669 C757.839,297.846,758.673,297.344,760.046,297.344 C761.419,297.344,762.25,297.846,762.25,298.669 C762.25,299.491,761.419,299.991,760.046,299.991 C758.673,299.991,757.839,299.491,757.839,298.669Z M758.427,277.348 C757.089,276.01,757.969,274.407,760.046,274.407 C761.662,274.407,762.25,274.879,762.25,276.172 C762.25,277.893,759.744,278.664,758.427,277.348Z M717.261,258.528 C717.261,258.045,716.665,257.646,715.937,257.646 C715.014,257.646,714.615,256.715,714.615,254.559 C714.615,250.739,716.309,250.504,718.394,254.033 C720.259,257.192,720.337,259.41,718.583,259.41 C717.855,259.41,717.261,259.013,717.261,258.528Z M738.431,253.677 C738.431,251.214,740.571,250.636,741.426,252.868 C742.321,255.198,742.041,255.881,740.196,255.881 C738.903,255.881,738.431,255.293,738.431,253.677Z M754.899,247.356 C753.399,245.853,754.416,244.31,756.73,244.577 C759.906,244.944,760.691,247.944,757.61,247.944 C756.445,247.944,755.222,247.677,754.899,247.356Z M34.4565,242.826 C34.4565,240.59,36.48,236.489,37.5862,236.481 C39.0239,236.47,40.6321,238.424,40.6321,240.18 C40.6321,241.054,40.2327,241.769,39.7498,241.769 C39.2642,241.769,38.8677,242.362,38.8677,243.091 C38.8677,243.914,38.0339,244.415,36.6606,244.415 C35.1257,244.415,34.4565,243.932,34.4565,242.826Z M37.9854,233.387 C37.9854,232.013,38.4844,231.183,39.3074,231.183 C40.1301,231.183,40.6321,232.013,40.6321,233.387 C40.6321,234.76,40.1301,235.594,39.3074,235.594 C38.4844,235.594,37.9854,234.76,37.9854,233.387Z M45.043,232.065 C45.043,230.888,45.6311,230.3,46.8074,230.3 C47.9836,230.3,48.5715,230.888,48.5715,232.065 C48.5715,233.241,47.9836,233.829,46.8074,233.829 C45.6311,233.829,45.043,233.241,45.043,232.065Z M718.143,226.329 C718.143,224.958,718.642,224.125,719.465,224.125 C720.288,224.125,720.79,224.958,720.79,226.329 C720.79,227.702,720.288,228.536,719.465,228.536 C718.642,228.536,718.143,227.702,718.143,226.329Z M651.979,187.008 C651.979,184.748,654.898,185.004,655.341,187.302 C655.546,188.363,655.071,188.837,653.808,188.837 C652.546,188.837,651.979,188.271,651.979,187.008Z M713.438,181.192 C712.224,179.978,712.912,178.251,714.615,178.251 C715.791,178.251,716.379,178.839,716.379,180.015 C716.379,181.715,714.652,182.406,713.438,181.192Z M707.776,157.378 C706.316,156.787,706.354,153.55,707.822,153.55 C709.297,153.55,711.086,155.338,711.086,156.814 C711.086,157.974,709.796,158.193,707.776,157.378Z M648.45,148.699 C648.45,147.971,649.047,147.375,649.775,147.375 C650.501,147.375,651.097,147.971,651.097,148.699 C651.097,149.425,650.501,150.021,649.775,150.021 C649.047,150.021,648.45,149.425,648.45,148.699Z M511.258,142.038 C510.181,138.642,515.207,135.774,516.47,139.065 C517.317,141.275,517.106,142.081,515.682,142.081 C514.956,142.081,514.36,142.478,514.36,142.963 C514.36,144.609,511.835,143.856,511.258,142.038Z M669.046,122.196 C668.757,121.446,668.754,120.604,669.035,120.321 C669.925,119.43,672.27,120.795,672.27,122.206 C672.27,123.965,669.723,123.957,669.046,122.196Z M177.021,114.221 C176.168,111.995,176.376,111.326,178.232,110.333 C180.439,109.152,184.426,110.098,184.426,111.806 C184.426,115.111,178.148,117.159,177.021,114.221Z M187.699,114.183 C186.183,112.669,187.208,111.205,189.784,111.205 C191.888,111.205,192.428,111.55,192.201,112.75 C191.899,114.329,188.824,115.308,187.699,114.183Z M636.1,99.8091 C636.1,97.9988,637.244,96.2073,638.401,96.2073 C639.121,96.2073,639.628,97.1165,639.628,98.4143 C639.628,100.03,639.159,100.618,637.864,100.618 C636.893,100.618,636.1,100.254,636.1,99.8091Z M437.61,90.9143 C437.61,89.9348,438.198,89.1499,438.934,89.1499 C439.668,89.1499,440.256,89.9348,440.256,90.9143 C440.256,91.8962,439.668,92.6787,438.934,92.6787 C438.198,92.6787,437.61,91.8962,437.61,90.9143Z M608.458,85.0356 C607.416,83.9917,607.832,81.1238,609.227,79.729 C610.246,78.7092,611.555,78.5205,614.52,78.9656 C616.683,79.2893,618.456,79.9556,618.456,80.4468 C618.456,82.0815,615.963,83.8594,613.667,83.8594 C612.421,83.8594,611.398,84.2561,611.398,84.7417 C611.398,85.7317,609.362,85.9368,608.458,85.0356Z M228.533,76.4214 C228.533,74.0474,230.619,71.5088,232.566,71.5088 C233.448,71.5088,233.826,72.5662,233.826,75.0376 C233.826,78.3694,233.681,78.5662,231.18,78.5662 C228.968,78.5662,228.533,78.2156,228.533,76.4214Z M605.811,77.978 C605.487,77.6543,605.223,76.6616,605.223,75.7712 C605.223,74.6355,605.879,74.1553,607.43,74.1553 C609.699,74.1553,610.028,74.7515,609.1,77.1687 C608.55,78.604,606.855,79.0195,605.811,77.978Z M234.047,69.1589 C231.827,68.2632,232.901,66.2156,235.591,66.2156 C237.649,66.2156,238.237,66.6067,238.237,67.98 C238.237,69.7039,236.564,70.176,234.047,69.1589Z M454.522,20.6519 C454.692,19.7644,455.558,18.8984,456.446,18.7285 C457.611,18.5044,457.975,18.866,457.749,20.0315 C457.579,20.9189,456.713,21.7849,455.825,21.9551 C454.66,22.179,454.298,21.8174,454.522,20.6519Z M378.241,11.8435 C376.854,10.4568,377.737,8.87329,379.892,8.87329 C381.573,8.87329,382.085,9.26978,381.867,10.4055 C381.557,12.0134,379.304,12.9065,378.241,11.8435Z" />
    <clipPath
       id="clip1">
      <use
         xlink:href="#Map-outline"
         id="use29" />
    </clipPath>
  </defs>
  <use
     style="fill:#002b7f;stroke:#002b7f;stroke-opacity:1"
     xlink:href="#Map-outline"
     id="use31" />
  <g
     clip-path="url(#clip1)"
     id="g33">
    <g
       transform="translate(-129,35)scale(9,9)"
       id="g35">
      <use
         clip-path="url(#Field)"
         xlink:href="#UnionJack"
         id="use37" />
    </g>
    <use
       transform="translate(139,440)scale(9.02,9.02)"
       xlink:href="#7star"
       id="use39" />
    <use
       transform="translate(545,271)scale(4.3,4.3)"
       xlink:href="#7star"
       id="use41" />
    <use
       transform="translate(682,486)scale(4.3,4.3)"
       xlink:href="#7star"
       id="use43" />
    <use
       transform="translate(735,329)scale(2.62,2.62)"
       xlink:href="#5star"
       id="use45" />
  </g>
</svg>
